<svg width="85" height="85" viewBox="0 0 85 85" fill="none" xmlns="http://www.w3.org/2000/svg">
<path d="M42.5 85C65.9721 85 85 65.9721 85 42.5C85 19.0279 65.9721 0 42.5 0C19.0279 0 0 19.0279 0 42.5C0 65.9721 19.0279 85 42.5 85Z" fill="#50B748"/>
<path d="M50.5616 84.2112C50.6875 84.1914 50.8133 84.171 50.939 84.15C52.3281 83.8687 53.7023 83.5181 55.0564 83.0994C56.4103 82.6823 57.7425 82.1978 59.048 81.6476C60.353 81.0964 61.6296 80.4802 62.873 79.8014C64.1187 79.1202 65.3295 78.3769 66.5008 77.5744C67.6694 76.7756 68.7973 75.9188 69.8804 75.0074C70.9639 74.0942 72.0011 73.1274 72.988 72.1106C73.9746 71.0927 74.9096 70.026 75.7896 68.9146C76.6705 67.8062 77.4955 66.6544 78.2614 65.4636C79.0285 64.2712 79.7355 63.0411 80.3796 61.778C81.0218 60.5157 81.6005 59.2221 82.1136 57.902C82.6271 56.5811 83.0742 55.2352 83.4532 53.8696C83.7457 52.7727 83.9941 51.6646 84.1978 50.5478L59.32 25.6802C57.1143 23.4663 54.4929 21.71 51.6065 20.5121C48.72 19.3142 45.6253 18.6984 42.5002 18.7C29.3762 18.7 18.7002 29.376 18.7002 42.5C18.7002 47.4198 20.203 51.9962 22.77 55.794V55.8008C23.1984 56.4332 23.654 57.0418 24.1402 57.6266V57.6334C24.623 58.2216 25.1432 58.7826 25.6804 59.3198L50.5616 84.2112Z" fill="#10A711"/>
<path d="M42.5002 18.7C29.3762 18.7 18.7002 29.376 18.7002 42.5C18.7002 55.624 29.3762 66.3 42.5002 66.3C55.6242 66.3 66.3002 55.624 66.3002 42.5C66.3002 29.376 55.6242 18.7 42.5002 18.7ZM42.5002 22.1C53.7882 22.1 62.9002 31.212 62.9002 42.5C62.9002 53.788 53.7882 62.9 42.5002 62.9C31.2122 62.9 22.1002 53.788 22.1002 42.5C22.1002 31.212 31.2122 22.1 42.5002 22.1ZM53.1966 32.7964L37.4002 48.5894L31.8072 42.9964L29.3966 45.4036L37.4002 53.4038L55.6072 35.2036L53.1966 32.7964Z" fill="white"/>
</svg>
