<svg width="85" height="85" viewBox="0 0 85 85" fill="none" xmlns="http://www.w3.org/2000/svg">
<path d="M42.5 79.6875C63.0381 79.6875 79.6875 63.0381 79.6875 42.5C79.6875 21.9619 63.0381 5.3125 42.5 5.3125C21.9619 5.3125 5.3125 21.9619 5.3125 42.5C5.3125 63.0381 21.9619 79.6875 42.5 79.6875Z" fill="#FFDE95"/>
<path d="M42.5 53.125C41.7955 53.125 41.1199 52.8451 40.6217 52.347C40.1236 51.8489 39.8438 51.1732 39.8438 50.4688V23.9062C39.8438 23.2018 40.1236 22.5261 40.6217 22.028C41.1199 21.5299 41.7955 21.25 42.5 21.25C43.2045 21.25 43.8801 21.5299 44.3783 22.028C44.8764 22.5261 45.1562 23.2018 45.1562 23.9062V50.4688C45.1562 51.1732 44.8764 51.8489 44.3783 52.347C43.8801 52.8451 43.2045 53.125 42.5 53.125Z" fill="#E85869"/>
<path d="M42.5 63.75C43.967 63.75 45.1562 62.5608 45.1562 61.0938C45.1562 59.6267 43.967 58.4375 42.5 58.4375C41.033 58.4375 39.8438 59.6267 39.8438 61.0938C39.8438 62.5608 41.033 63.75 42.5 63.75Z" fill="#E85869"/>
</svg>
