<svg width="272" height="43" viewBox="0 0 272 43" fill="none" xmlns="http://www.w3.org/2000/svg">
<path d="M24.3592 33.0427L16.3125 8.86816H20.2792L26.2858 27.0274H26.7392L30.3658 16.3589L27.8725 8.86816H31.9525L37.8458 27.4814H38.2992L43.7392 8.86816H45.4392L37.8458 33.0427H36.0325L31.0458 18.4018L26.0592 33.0427H24.3592Z" fill="black"/>
<path d="M50.2031 33.0419V8.75391H63.8031V10.1159H53.8298V19.8765H61.7631V21.2384H53.8298V31.453H64.2565V33.0419H50.2031Z" fill="black"/>
<path fill-rule="evenodd" clip-rule="evenodd" d="M69.0234 33.0432V8.7552H77.1834C77.1834 8.7552 82.7368 8.52799 83.3034 14.0895C83.776 18.7285 79.4501 19.8778 79.4501 19.8778V20.3317C79.4501 20.3317 84.5501 21.6935 84.7768 26.12C84.7768 32.7025 77.8634 33.0432 77.8634 33.0432H69.0234ZM72.6501 20.7857V31.6813C72.6501 31.6813 81.6034 32.816 81.4901 26.12C81.3729 19.1963 72.6501 20.7857 72.6501 20.7857ZM72.6501 19.6508V9.89016C72.6501 9.89016 79.7901 9.09546 79.9034 14.203C80.032 19.9997 72.6501 19.6508 72.6501 19.6508Z" fill="black"/>
<path d="M96.3483 31.5717C96.9635 31.5717 97.5723 31.4943 98.1755 31.3327C98.7791 31.1774 99.3104 30.9443 99.7878 30.6336C100.26 30.3228 100.642 29.946 100.929 29.4981C101.222 29.0439 101.371 28.5239 101.371 27.9262C101.371 27.2866 101.198 26.7012 100.863 26.1752C100.523 25.6491 100.075 25.1654 99.5135 24.7168C98.9523 24.2687 98.3072 23.8384 97.5782 23.4379C96.8499 23.0375 96.1035 22.6371 95.3331 22.2367C94.5153 21.8184 93.7086 21.3821 92.9087 20.934C92.1083 20.4855 91.3918 19.9777 90.7589 19.4098C90.1195 18.8421 89.6063 18.2026 89.2178 17.4853C88.8298 16.7683 88.6328 15.9318 88.6328 14.9694C88.6328 14.085 88.7881 13.2601 89.1047 12.5011C89.4209 11.7422 89.8808 11.0849 90.4962 10.5349C91.1051 9.97897 91.8637 9.54292 92.7597 9.22604C93.6612 8.91529 94.6884 8.75391 95.841 8.75391C95.9324 8.75391 96.0228 8.75504 96.1126 8.75686V10.2697C95.9671 10.2632 95.8186 10.26 95.6679 10.26C94.8732 10.26 94.1805 10.3615 93.5837 10.5707C92.9864 10.7739 92.4966 11.0429 92.1022 11.3716C91.7139 11.7064 91.4217 12.0768 91.2184 12.4952C91.0214 12.9076 90.926 13.3319 90.926 13.762C90.926 14.2882 91.0933 14.79 91.4396 15.2622C91.7862 15.7346 92.24 16.1885 92.8071 16.6189C93.3688 17.0491 94.0132 17.4674 94.736 17.8678C95.4589 18.2741 96.1992 18.6748 96.9576 19.069C97.7997 19.4992 98.6415 19.9598 99.4779 20.4439C100.32 20.9281 101.078 21.4656 101.753 22.0515C102.428 22.643 102.983 23.2886 103.407 23.9998C103.831 24.7048 104.046 25.4938 104.046 26.3725C104.046 27.2927 103.879 28.1591 103.539 28.972C103.198 29.7792 102.696 30.4901 102.034 31.0878C101.371 31.6913 100.535 32.1635 99.5371 32.516C98.5572 32.8649 97.4141 33.0378 96.1126 33.0419V31.5688C96.1908 31.5708 96.2694 31.5717 96.3483 31.5717Z" fill="black"/>
<path d="M108.805 33.0419V8.75391H122.405V10.1159H112.431V19.8765H120.138V21.2384H112.431V31.453H122.631V33.0419H108.805Z" fill="black"/>
<path fill-rule="evenodd" clip-rule="evenodd" d="M127.391 8.75391V33.0419H130.791V21.4654H133.284L140.084 33.0419H144.164L136.684 21.2384V20.7844C138.346 20.406 141.671 18.6053 141.671 14.4287C141.671 10.252 137.439 8.90531 135.324 8.75391H127.391ZM130.791 20.2169V9.88886H132.717C134.644 9.88886 138.044 10.4439 138.044 14.5422C138.044 18.6403 135.626 20.0329 134.417 20.2169H130.791Z" fill="black"/>
<path d="M148.83 8.75391L157.977 27.8127L166.342 8.75391H168.19L157.534 33.0054L156.789 33.0419L145.297 8.75391H148.83Z" fill="black"/>
<path d="M172.945 8.75391H176.119V33.0419H172.945V8.75391Z" fill="black"/>
<path d="M184.75 20.9758C184.75 22.601 185.001 24.0533 185.509 25.344C186.017 26.6353 186.722 27.7288 187.613 28.6192C188.504 29.5097 189.555 30.1971 190.763 30.6692C191.909 31.1175 193.152 31.3502 194.483 31.3724V32.9934C194.11 33.0258 193.726 33.0419 193.333 33.0419C191.462 33.0419 189.764 32.7189 188.235 32.0795C186.705 31.4342 185.395 30.5675 184.301 29.468C183.214 28.3743 182.371 27.0893 181.773 25.6252C181.175 24.1611 180.883 22.6131 180.883 20.9758C180.883 19.8937 181.014 18.83 181.289 17.8022C181.564 16.7683 181.965 15.8002 182.484 14.8917C183.004 13.9892 183.632 13.1584 184.373 12.4053C185.115 11.6526 185.951 11.0068 186.884 10.4631C187.822 9.91928 188.844 9.50093 189.962 9.20199C191.074 8.90327 192.263 8.75391 193.524 8.75391C193.85 8.75391 194.17 8.76684 194.483 8.79226V10.4216C193.173 10.4327 191.937 10.6779 190.775 11.1564C189.585 11.6464 188.539 12.3458 187.649 13.254C186.752 14.1685 186.047 15.2742 185.527 16.571C185.007 17.8737 184.75 19.3442 184.75 20.9758Z" fill="black"/>
<path d="M199.242 33.0419V8.75391H212.842V10.1159H202.869V19.8765H210.576V21.2384H202.869V31.453H213.069V33.0419H199.242Z" fill="black"/>
<path d="M219.528 33.0445C220.467 33.0445 221.228 32.2823 221.228 31.3421C221.228 30.4019 220.467 29.6396 219.528 29.6396C218.589 29.6396 217.828 30.4019 217.828 31.3421C217.828 32.2823 218.589 33.0445 219.528 33.0445Z" fill="black"/>
<path d="M225.992 33.0419V8.75391H229.392V16.6986H229.846L234.946 8.75391H237.212L230.752 17.6065V18.0605L239.479 33.0419H235.852L229.846 22.1464H229.392V33.0419H225.992Z" fill="black"/>
<path d="M246.062 20.9758C246.062 22.601 246.314 24.0533 246.822 25.344C247.329 26.6353 248.034 27.7288 248.925 28.6192C249.816 29.5097 250.868 30.1971 252.076 30.6692C252.719 30.9207 253.393 31.1046 254.095 31.2212C254.644 31.3125 255.211 31.3627 255.795 31.3724V32.9934C255.424 33.0258 255.038 33.0419 254.646 33.0419C252.774 33.0419 251.076 32.7189 249.546 32.0795C248.016 31.4342 246.708 30.5675 245.613 29.468C244.525 28.3743 243.685 27.0893 243.086 25.6252C242.488 24.1611 242.195 22.6131 242.195 20.9758C242.195 19.8937 242.327 18.83 242.601 17.8022C242.878 16.7683 243.277 15.8002 243.798 14.8917C244.317 13.9892 244.945 13.1584 245.686 12.4053C246.427 11.6526 247.264 11.0068 248.197 10.4631C249.134 9.91928 250.156 9.50093 251.273 9.20199C252.386 8.90327 253.576 8.75391 254.837 8.75391C255.163 8.75391 255.483 8.76684 255.795 8.79226V10.4216C254.485 10.4327 253.25 10.6779 252.087 11.1564C250.897 11.6464 249.852 12.3458 248.961 13.254C248.064 14.1685 247.359 15.2742 246.84 16.571C246.318 17.8737 246.062 19.3442 246.062 20.9758Z" fill="black"/>
<path d="M255.794 31.372V21.9189H254.094V31.2208C254.642 31.3121 255.209 31.3622 255.794 31.372Z" fill="black"/>
</svg>
