<svg width="52" height="51" viewBox="0 0 52 51" fill="none" xmlns="http://www.w3.org/2000/svg">
<g clip-path="url(#clip0_8_1934)">
<path d="M26.1666 7.61488e-06C40.2505 7.61488e-06 51.6666 11.4162 51.6666 25.5C51.6666 39.5839 40.2505 51 26.1666 51C12.0828 51 0.666626 39.5839 0.666626 25.5L1.52578 18.8798C2.98196 13.4593 6.1862 8.67088 10.6415 5.25726C15.0967 1.84364 20.554 -0.00432893 26.1666 7.61488e-06ZM39.8974 15.6923H24.2051V17.6539H39.8974V15.6923ZM22.2435 15.6923H20.282V17.6539H22.2435V15.6923ZM18.3205 15.6923H16.3589V17.6539H18.3205V15.6923ZM14.3974 15.6923H12.4359V17.6539H14.3974V15.6923ZM39.8974 19.6154H12.4359V35.3077H39.8974V19.6154ZM26.1058 22.4361L29.6601 28.5639L32.9712 23.8445L37.6907 29.7899L36.2195 31.0178L33.0928 27.1536L29.5385 32.2438L26.2274 26.6044L23.4087 32.2418L20.3428 28.1971L17.9517 32.0594L14.6426 28.0735L16.1137 26.8495L17.7085 28.7483L20.2192 24.7644L23.0399 28.5659L26.1058 22.4361Z" fill="black"/>
</g>
<defs>
<clipPath id="clip0_8_1934">
<rect width="51" height="51" fill="white" transform="matrix(-1 0 0 1 51.6666 0)"/>
</clipPath>
</defs>
</svg>
