<svg width="80" height="22" viewBox="0 0 80 22" fill="none" xmlns="http://www.w3.org/2000/svg">
<path d="M10.2052 20L6.29944 12.8267H4.81883V20H0.530156V1.92631H7.42267C8.29061 1.92631 9.13303 2.01991 9.94992 2.20712C10.7838 2.3773 11.5241 2.67512 12.1708 3.10059C12.8346 3.52605 13.3621 4.08766 13.7536 4.78542C14.145 5.48318 14.3407 6.35113 14.3407 7.38926C14.3407 8.6146 14.0088 9.64422 13.3451 10.4781C12.6814 11.312 11.7624 11.9077 10.5881 12.2651L15.3108 20H10.2052ZM10.0265 7.46584C10.0265 7.04038 9.9329 6.70001 9.7457 6.44473C9.57551 6.17243 9.34576 5.96821 9.05645 5.83206C8.78415 5.6789 8.46931 5.57679 8.11192 5.52573C7.77155 5.47467 7.43968 5.44915 7.11633 5.44915H4.7933V9.66124H6.86105C7.21844 9.66124 7.58434 9.63571 7.95875 9.58465C8.33316 9.51658 8.67353 9.40596 8.97986 9.25279C9.2862 9.09962 9.53296 8.87838 9.72017 8.58907C9.92439 8.29975 10.0265 7.92534 10.0265 7.46584ZM32.5187 13.1841C32.5187 14.2733 32.3315 15.2688 31.9571 16.1708C31.5997 17.0558 31.0806 17.8216 30.3999 18.4683C29.7191 19.098 28.8937 19.5916 27.9237 19.9489C26.9707 20.3063 25.907 20.485 24.7327 20.485C23.5414 20.485 22.4692 20.3063 21.5162 19.9489C20.5632 19.5916 19.7548 19.098 19.0911 18.4683C18.4273 17.8216 17.9168 17.0558 17.5594 16.1708C17.202 15.2688 17.0233 14.2733 17.0233 13.1841V1.92631H21.363V12.8267C21.363 13.3202 21.4226 13.7882 21.5417 14.2307C21.6779 14.6732 21.8736 15.0731 22.1289 15.4305C22.4012 15.7709 22.7501 16.0432 23.1755 16.2474C23.618 16.4516 24.1456 16.5537 24.7582 16.5537C25.3709 16.5537 25.89 16.4516 26.3154 16.2474C26.7579 16.0432 27.1153 15.7709 27.3876 15.4305C27.6599 15.0731 27.8556 14.6732 27.9747 14.2307C28.0939 13.7882 28.1534 13.3202 28.1534 12.8267V1.92631H32.5187V13.1841ZM36.6359 21.3274L33.7512 20.3829L41.6393 0.547807L44.5239 1.54339L36.6359 21.3274ZM57.1867 20L50.4729 11.6779H50.4219V20H46.1332V1.92631H50.4219V9.27832H50.4985L56.957 1.92631H62.4199L54.634 10.2484L62.8794 20H57.1867ZM79.0615 18.9023C78.1765 19.3618 77.1384 19.7362 75.9471 20.0255C74.7728 20.3148 73.4879 20.4595 72.0924 20.4595C70.6458 20.4595 69.3099 20.2298 68.0845 19.7702C66.8762 19.3107 65.8296 18.664 64.9446 17.8301C64.0767 16.9962 63.3959 16.0006 62.9024 14.8434C62.4088 13.6691 62.1621 12.3672 62.1621 10.9376C62.1621 9.49105 62.4088 8.18062 62.9024 7.00634C63.4129 5.83206 64.1107 4.83648 64.9957 4.01959C65.8806 3.18568 66.9188 2.54749 68.11 2.105C69.3013 1.66252 70.5862 1.44128 71.9647 1.44128C73.3943 1.44128 74.7218 1.66252 75.9471 2.105C77.1724 2.53047 78.168 3.1091 78.9338 3.8409L76.1768 6.98082C75.7514 6.48728 75.1898 6.08734 74.492 5.78101C73.7942 5.45766 73.0029 5.29598 72.1179 5.29598C71.3521 5.29598 70.6458 5.44064 69.9991 5.72995C69.3524 6.00225 68.7908 6.39368 68.3143 6.90423C67.8378 7.39777 67.4633 7.99342 67.191 8.69118C66.9358 9.37192 66.8081 10.1207 66.8081 10.9376C66.8081 11.7715 66.9273 12.5374 67.1655 13.2351C67.4038 13.9329 67.7527 14.537 68.2122 15.0476C68.6887 15.5411 69.2673 15.9326 69.9481 16.2219C70.6458 16.4942 71.4372 16.6303 72.3221 16.6303C72.8327 16.6303 73.3177 16.5963 73.7772 16.5282C74.2367 16.4431 74.6622 16.3155 75.0536 16.1453V12.8522H71.6074V9.32937H79.0615V18.9023Z" fill="black"/>
</svg>
