<svg width="50" height="50" viewBox="0 0 50 50" fill="none" xmlns="http://www.w3.org/2000/svg">
<path fill-rule="evenodd" clip-rule="evenodd" d="M33.6406 11.3438L36.7656 8.8125C37.6562 8.10938 38.7031 7.84375 39.0938 8.23438L40.3906 9.53125L41.6875 10.8281C42.0781 11.2188 41.8125 12.2656 41.1094 13.1562L38.5781 16.3594C39.575 17.9202 40.289 19.6445 40.6875 21.4531L44.7344 21.9219C45.875 22.0625 46.7969 22.6094 46.7969 23.1562V26.8438C46.7969 27.3906 45.875 27.9375 44.7344 28.0781L40.6875 28.5312C40.2892 30.3448 39.5752 32.0743 38.5781 33.6406L41.1094 36.7656C41.8125 37.6562 42.0781 38.7031 41.6875 39.0938L40.3906 40.3906L39.0938 41.6875C38.7031 42.0781 37.6562 41.8125 36.7656 41.1094L33.6406 38.5781C32.0756 39.5778 30.3457 40.292 28.5312 40.6875L28.125 44.8125C27.9844 45.9531 27.4375 46.875 26.8906 46.875H23.1562C22.6094 46.875 22.0625 45.9531 21.9219 44.8125L21.4531 40.7656C19.6454 40.3644 17.9216 39.6505 16.3594 38.6562L13.1562 41.1875C12.2656 41.8906 11.2188 42.1562 10.8281 41.7656L9.53125 40.4688L8.23438 39.1719C7.84375 38.7812 8.10938 37.7344 8.8125 36.8438L11.3438 33.7188C10.344 32.1537 9.62985 30.4238 9.23438 28.6094L5.1875 28.125C4.04687 27.9375 3.125 27.3906 3.125 26.8438V23.1562C3.125 22.6094 4.04687 22.0625 5.1875 21.9219L9.23438 21.4531C9.63564 19.6454 10.3495 17.9216 11.3438 16.3594L8.8125 13.1562C8.10938 12.2656 7.8125 11.2188 8.23438 10.8281L9.53125 9.53125L10.8281 8.23438C11.2188 7.84375 12.2656 8.10938 13.1562 8.8125L16.3594 11.3438C17.9202 10.3469 19.6445 9.63286 21.4531 9.23438L21.875 5.1875C22.0156 4.04687 22.5625 3.125 23.1094 3.125H26.7969C27.3438 3.125 27.8906 4.04687 28.0312 5.1875L28.4844 9.23438C30.2979 9.63267 32.0274 10.3467 33.5938 11.3438H33.6406ZM19.1562 25C19.1522 25.1796 19.0779 25.3505 18.9494 25.4761C18.821 25.6016 18.6484 25.6719 18.4688 25.6719C18.2906 25.6719 18.1197 25.6011 17.9937 25.4751C17.8677 25.3491 17.7969 25.1782 17.7969 25C17.7969 23.0896 18.5558 21.2575 19.9066 19.9066C21.2575 18.5558 23.0896 17.7969 25 17.7969C25.1782 17.7969 25.3491 17.8677 25.4751 17.9937C25.6011 18.1197 25.6719 18.2906 25.6719 18.4688C25.6719 18.6484 25.6016 18.821 25.4761 18.9494C25.3505 19.0779 25.1796 19.1522 25 19.1562C24.2314 19.1521 23.4697 19.3004 22.7588 19.5926C22.0479 19.8848 21.4021 20.3151 20.8586 20.8586C20.3151 21.4021 19.8848 22.0479 19.5926 22.7588C19.3004 23.4697 19.1521 24.2314 19.1562 25ZM25 14.8438C27.0087 14.8438 28.9723 15.4394 30.6425 16.5554C32.3127 17.6714 33.6144 19.2576 34.3832 21.1134C35.1519 22.9692 35.353 25.0113 34.9611 26.9814C34.5692 28.9515 33.6019 30.7612 32.1816 32.1816C30.7612 33.6019 28.9515 34.5692 26.9814 34.9611C25.0113 35.353 22.9692 35.1519 21.1134 34.3832C19.2576 33.6144 17.6714 32.3127 16.5554 30.6425C15.4394 28.9723 14.8438 27.0087 14.8438 25C14.8438 22.3064 15.9138 19.7231 17.8184 17.8184C19.7231 15.9138 22.3064 14.8438 25 14.8438Z" fill="black"/>
</svg>
