<svg width="51" height="51" viewBox="0 0 51 51" fill="none" xmlns="http://www.w3.org/2000/svg">
<g clip-path="url(#clip0_8_1930)">
<path d="M25.0442 0.0122604C14.5732 0.436198 6.375 9.30064 6.375 20.1891C6.375 35.3808 24.8625 48.2391 25.6498 48.781L26.5901 49.4185L27.5049 48.7428C28.2317 48.2009 45.2912 35.3234 45.2912 18.7579C45.288 13.7631 43.2576 9.06157 39.5696 5.51707C37.6398 3.67454 35.3599 2.23797 32.8649 1.29241C30.3698 0.346857 27.7105 -0.088452 25.0442 0.0122604ZM25.5733 12.4021C26.4113 12.359 27.2494 12.4859 28.0371 12.7752C28.8248 13.0644 29.5459 13.51 30.1569 14.0851C31.4096 15.2389 32.1332 16.8136 32.2065 18.5157C32.2415 19.3525 32.1102 20.1878 31.8203 20.9735C31.5303 21.7592 31.0874 22.4796 30.5171 23.0929C29.9503 23.7102 29.2671 24.2093 28.5067 24.5615C27.7463 24.9138 26.9238 25.1124 26.0865 25.1457H25.8251C24.2186 25.1457 22.6982 24.5496 21.5093 23.4563C20.892 22.8911 20.393 22.209 20.0412 21.4496C19.6894 20.6901 19.4917 19.8684 19.4597 19.0321C19.3932 17.3427 19.9996 15.6959 21.1457 14.453C22.2918 13.2101 23.8841 12.4725 25.5733 12.4021Z" fill="black"/>
</g>
<defs>
<clipPath id="clip0_8_1930">
<rect width="51" height="51" fill="white"/>
</clipPath>
</defs>
</svg>
