<svg width="65" height="44" viewBox="0 0 65 44" fill="none" xmlns="http://www.w3.org/2000/svg">
<g clip-path="url(#clip0_8_1938)">
<path d="M32.6653 0C24.3778 0 16.0515 2.96889 9.72901 9.44499C0.603292 18.3492 -1.82242 31.5714 2.22393 43.1746H63.106C67.1539 31.5714 64.7274 18.3492 55.6017 9.44419C49.2792 2.9697 40.952 0.000809398 32.6653 0.000809398V0ZM31.3155 5.39702H34.0144V10.794H31.3155V5.39702ZM19.7633 8.34813L22.4622 13.1551C21.6523 13.4251 20.8561 13.9642 20.1011 14.5041L17.4022 9.69799C18.1531 9.42802 18.9436 8.88807 19.7633 8.34813ZM45.5666 8.34813C46.3871 8.88807 47.1776 9.42802 47.9277 9.69799L45.2296 14.5041C44.4738 13.9642 43.6776 13.4251 42.8685 13.1543L45.5666 8.34813ZM53.4088 11.3C53.5413 11.2564 53.6602 11.2475 53.7466 11.3C53.9641 11.3728 53.6488 12.0178 52.9028 12.9021L37.8926 30.8625C37.8929 30.8908 37.8929 30.9191 37.8926 30.9474C38.1311 31.8483 38.1323 32.7956 37.896 33.697C37.6598 34.5985 37.1941 35.4234 36.5444 36.0914C35.8768 36.7702 35.0415 37.2603 34.1233 37.512C33.2051 37.7637 32.2367 37.768 31.3163 37.5246L28.8704 39.8856C28.625 40.1414 28.3305 40.3449 28.0045 40.484C27.6785 40.623 27.3277 40.6947 26.9733 40.6947C26.6189 40.6947 26.2681 40.623 25.9421 40.484C25.6161 40.3449 25.3215 40.1414 25.0762 39.8856C24.0222 38.8065 24.0222 37.1705 25.0762 36.0914L27.5213 33.6455C27.2832 32.7446 27.2823 31.7974 27.5189 30.8961C27.7554 29.9948 28.2213 29.1701 28.8712 28.5023C29.5633 27.8086 30.4313 27.3164 31.382 27.0786C32.3327 26.8408 33.3301 26.8663 34.2674 27.1524C34.2954 27.1522 34.3234 27.1522 34.3515 27.1524L52.2287 12.1423C52.5083 11.9241 53.0127 11.4294 53.4088 11.3ZM8.88595 18.2991L13.608 20.9972C13.0932 21.8063 12.6728 22.6332 12.2582 23.4423L7.62096 20.7442C8.03723 19.9343 8.40663 19.1082 8.88595 18.2991ZM56.4447 18.2991C56.9524 19.1082 57.3678 19.9343 57.7946 20.7442L53.0717 23.4423C52.6595 22.6332 52.2375 21.8063 51.7218 20.9972L56.4447 18.2991ZM32.2442 29.5975C31.6997 29.6974 31.1991 29.9624 30.8103 30.3565C30.5158 30.5943 30.2746 30.8913 30.1024 31.2283C29.9302 31.5653 29.8308 31.9348 29.8107 32.3127C29.7906 32.6906 29.8502 33.0686 29.9857 33.422C30.1212 33.7753 30.3295 34.0963 30.5971 34.3639C30.8647 34.6315 31.1857 34.8398 31.539 34.9753C31.8924 35.1108 32.2704 35.1704 32.6483 35.1503C33.0262 35.1302 33.3957 35.0308 33.7327 34.8586C34.0697 34.6864 34.3667 34.4452 34.6045 34.1507C35.003 33.7448 35.263 33.2234 35.3475 32.6609C35.4319 32.0984 35.3364 31.5236 35.0747 31.0186C34.8129 30.5137 34.3982 30.1043 33.8899 29.8491C33.3816 29.5939 32.8056 29.5058 32.2442 29.5975ZM4.41524 32.3813H9.81226C9.77993 32.6505 9.73062 33.1904 9.7282 33.7304C9.7282 34.2695 9.79125 34.5395 9.81226 35.0794H4.41524C4.38129 34.5395 4.33117 34.0004 4.33117 33.7296C4.33117 33.1904 4.38291 32.6505 4.41524 32.3813ZM55.516 32.3813H60.913C60.951 32.6505 60.9971 33.1904 60.9971 33.7304C60.9866 34.2695 60.9421 34.5395 60.913 35.0794H55.516C55.5435 34.5395 55.6009 34.0004 55.6009 33.7296C55.6009 33.1904 55.5427 32.6505 55.516 32.3813Z" fill="black"/>
</g>
<defs>
<clipPath id="clip0_8_1938">
<rect width="64.6641" height="43.1746" fill="white" transform="translate(0.333496)"/>
</clipPath>
</defs>
</svg>
