<svg width="51" height="50" viewBox="0 0 51 50" fill="none" xmlns="http://www.w3.org/2000/svg">
<path d="M30.9991 47.2092C40.2637 44.8551 47.2741 36.853 48.1533 27.0842H37.7762C37.3887 34.4738 34.9512 41.3488 30.9991 47.2092ZM48.1533 22.9176C47.2741 13.1467 40.2575 5.14258 30.9908 2.78841C34.945 8.65091 37.3866 15.5259 37.7762 22.9176H48.1533ZM19.672 2.78841C10.4012 5.14258 3.3887 13.1467 2.50537 22.9176H12.8845C13.2741 15.5259 15.7158 8.65091 19.672 2.78841ZM2.50745 27.0842C2.94014 31.799 4.8212 36.2643 7.89251 39.8676C10.9638 43.4708 15.0749 46.0353 19.6616 47.2092C15.7095 41.3488 13.272 34.4738 12.8845 27.0842H2.50745ZM25.3304 47.8384C20.5241 42.0363 17.5137 34.878 17.0595 27.0842H33.6033C33.145 34.8759 30.1366 42.0363 25.3325 47.8384M25.3304 2.17383C30.1366 7.97383 33.1429 15.1301 33.6012 22.9176H17.0595C17.5179 15.1301 20.5262 7.97383 25.3304 2.17383Z" fill="black"/>
</svg>
