<svg width="49" height="61" viewBox="0 0 49 61" fill="none" xmlns="http://www.w3.org/2000/svg">
<path d="M24.3333 33.4583C23.4073 33.4475 22.5002 33.7206 21.7341 34.241C20.9679 34.7613 20.3796 35.5038 20.0483 36.3686C19.7169 37.2334 19.6585 38.179 19.8808 39.078C20.1031 39.977 20.5955 40.7864 21.2917 41.3971V45.625C21.2917 46.4317 21.6121 47.2054 22.1826 47.7758C22.753 48.3462 23.5266 48.6667 24.3333 48.6667C25.14 48.6667 25.9137 48.3462 26.4841 47.7758C27.0545 47.2054 27.375 46.4317 27.375 45.625V41.3971C28.0712 40.7864 28.5636 39.977 28.7859 39.078C29.0082 38.179 28.9497 37.2334 28.6184 36.3686C28.2871 35.5038 27.6987 34.7613 26.9326 34.241C26.1665 33.7206 25.2594 33.4475 24.3333 33.4583ZM39.5417 21.2917V15.2083C39.5417 11.1748 37.9394 7.30653 35.0872 4.45442C32.2351 1.6023 28.3668 0 24.3333 0C20.2998 0 16.4315 1.6023 13.5794 4.45442C10.7273 7.30653 9.125 11.1748 9.125 15.2083V21.2917C6.7049 21.2917 4.38392 22.253 2.67265 23.9643C0.961381 25.6756 0 27.9966 0 30.4167V51.7083C0 54.1284 0.961381 56.4494 2.67265 58.1607C4.38392 59.872 6.7049 60.8333 9.125 60.8333H39.5417C41.9618 60.8333 44.2827 59.872 45.994 58.1607C47.7053 56.4494 48.6667 54.1284 48.6667 51.7083V30.4167C48.6667 27.9966 47.7053 25.6756 45.994 23.9643C44.2827 22.253 41.9618 21.2917 39.5417 21.2917ZM15.2083 15.2083C15.2083 12.7882 16.1697 10.4673 17.881 8.75598C19.5923 7.04471 21.9132 6.08333 24.3333 6.08333C26.7534 6.08333 29.0744 7.04471 30.7857 8.75598C32.497 10.4673 33.4583 12.7882 33.4583 15.2083V21.2917H15.2083V15.2083ZM42.5833 51.7083C42.5833 52.515 42.2629 53.2887 41.6925 53.8591C41.122 54.4295 40.3484 54.75 39.5417 54.75H9.125C8.3183 54.75 7.54464 54.4295 6.97422 53.8591C6.40379 53.2887 6.08333 52.515 6.08333 51.7083V30.4167C6.08333 29.61 6.40379 28.8363 6.97422 28.2659C7.54464 27.6955 8.3183 27.375 9.125 27.375H39.5417C40.3484 27.375 41.122 27.6955 41.6925 28.2659C42.2629 28.8363 42.5833 29.61 42.5833 30.4167V51.7083Z" fill="black"/>
</svg>
