<svg width="53" height="53" viewBox="0 0 53 53" fill="none" xmlns="http://www.w3.org/2000/svg">
<path d="M46.2935 10.9881C46.4822 12.4934 46.6419 14.0018 46.775 15.5129C46.9078 17.0354 48.1846 18.1838 49.6857 18.1838C49.7714 18.1838 49.8571 18.1809 49.9443 18.1724C51.5539 18.0323 52.7436 16.6127 52.6023 15.0045C52.4636 13.4192 52.2951 11.8423 52.098 10.2627C51.4624 5.16961 47.4591 1.16462 42.3631 0.527837C40.7564 0.325131 39.1467 0.156354 37.5356 0.0165366C35.9087 -0.157797 34.5076 1.0678 34.3677 2.676C34.2276 4.28712 35.4175 5.70402 37.0272 5.84384C38.564 5.9781 40.1023 6.14103 41.6348 6.33232C41.7775 6.35017 41.8968 6.42388 42.0355 6.45254L32.5124 15.9727C31.3699 17.1153 31.3699 18.9662 32.5124 20.1091C33.0836 20.6803 33.8322 20.9661 34.5804 20.9661C35.3286 20.9661 36.0771 20.6803 36.6484 20.1091L46.173 10.5868C46.202 10.7258 46.2757 10.8454 46.2935 10.9881ZM20.0709 32.549C18.9284 31.4065 17.0774 31.4065 15.9346 32.549L6.41149 42.0722C6.38282 41.9326 6.30882 41.8127 6.29098 41.6697C6.11665 40.273 5.96688 38.873 5.83964 37.4734C5.69251 35.8652 4.28702 34.6855 2.66186 34.8227C1.05366 34.9684 -0.133329 36.3908 0.0123391 37.999C0.145137 39.4674 0.303675 40.9355 0.486491 42.3951C1.12357 47.494 5.1268 51.4958 10.2228 52.13C11.834 52.3327 13.4492 52.5041 15.0662 52.6442C15.1519 52.653 15.2376 52.6559 15.3218 52.6559C16.8229 52.6559 18.1012 51.5075 18.2325 49.985C18.3726 48.3739 17.1813 46.957 15.5716 46.8172C14.0292 46.6829 12.488 46.5174 10.9468 46.3258C10.8052 46.3082 10.6868 46.2348 10.549 46.2067L20.0709 36.6851C21.2135 35.5425 21.2135 33.6916 20.0709 32.549ZM37.9969 40.9557C38.7454 40.9557 39.4936 40.6699 40.0649 40.0986C41.2074 38.9561 41.2074 37.1051 40.0649 35.9623L16.6644 12.5618C15.5219 11.4193 13.6709 11.4193 12.5281 12.5618C11.3853 13.7044 11.3856 15.5553 12.5281 16.6981L35.9286 40.0986C36.5001 40.6699 37.2483 40.9557 37.9969 40.9557Z" fill="black"/>
</svg>
