<svg width="99" height="70" viewBox="0 0 99 70" fill="none" xmlns="http://www.w3.org/2000/svg">
<rect x="1.5" y="1.5" width="96" height="66.7986" rx="8.5" stroke="white" stroke-width="3"/>
<path d="M25.8587 37.4049C25.9203 38.5062 26.1802 39.4004 26.6383 40.0876C27.5106 41.3739 29.0479 42.017 31.2505 42.017C32.2372 42.017 33.1358 41.8761 33.9464 41.5942C35.5146 41.0479 36.2987 40.07 36.2987 38.6604C36.2987 37.6032 35.9683 36.8499 35.3075 36.4006C34.638 35.9601 33.5895 35.5768 32.1623 35.2509L29.5325 34.6562C27.8145 34.2685 26.5987 33.8412 25.8851 33.3743C24.6517 32.5638 24.035 31.3524 24.035 29.7401C24.035 27.9957 24.6384 26.5641 25.8454 25.4452C27.0524 24.3263 28.7616 23.7668 30.9729 23.7668C33.0081 23.7668 34.7349 24.2602 36.1533 25.2469C37.5805 26.2249 38.2942 27.7931 38.2942 29.9516H35.8229C35.6908 28.912 35.4088 28.1146 34.9771 27.5596C34.1754 26.5464 32.8143 26.0399 30.8936 26.0399C29.3431 26.0399 28.2286 26.3658 27.5502 27.0178C26.8718 27.6697 26.5326 28.4274 26.5326 29.2908C26.5326 30.2423 26.9291 30.9383 27.722 31.3788C28.2418 31.6607 29.4179 32.0131 31.2505 32.436L33.9728 33.0571C35.2855 33.3567 36.2987 33.7663 37.0123 34.2861C38.2457 35.1936 38.8624 36.5107 38.8624 38.2375C38.8624 40.3872 38.0783 41.9245 36.5101 42.8496C34.9507 43.7747 33.1358 44.2372 31.0654 44.2372C28.6515 44.2372 26.7617 43.6205 25.3961 42.3871C24.0305 41.1625 23.361 39.5017 23.3874 37.4049H25.8587ZM43.64 37.4049C43.7017 38.5062 43.9615 39.4004 44.4197 40.0876C45.2919 41.3739 46.8292 42.017 49.0318 42.017C50.0185 42.017 50.9172 41.8761 51.7277 41.5942C53.2959 41.0479 54.08 40.07 54.08 38.6604C54.08 37.6032 53.7496 36.8499 53.0889 36.4006C52.4193 35.9601 51.3709 35.5768 49.9436 35.2509L47.3138 34.6562C45.5958 34.2685 44.38 33.8412 43.6664 33.3743C42.433 32.5638 41.8163 31.3524 41.8163 29.7401C41.8163 27.9957 42.4198 26.5641 43.6268 25.4452C44.8338 24.3263 46.5429 23.7668 48.7543 23.7668C50.7894 23.7668 52.5162 24.2602 53.9346 25.2469C55.3619 26.2249 56.0755 27.7931 56.0755 29.9516H53.6042C53.4721 28.912 53.1902 28.1146 52.7585 27.5596C51.9568 26.5464 50.5956 26.0399 48.675 26.0399C47.1244 26.0399 46.0099 26.3658 45.3315 27.0178C44.6531 27.6697 44.314 28.4274 44.314 29.2908C44.314 30.2423 44.7104 30.9383 45.5033 31.3788C46.0231 31.6607 47.1993 32.0131 49.0318 32.436L51.7541 33.0571C53.0668 33.3567 54.08 33.7663 54.7936 34.2861C56.027 35.1936 56.6437 36.5107 56.6437 38.2375C56.6437 40.3872 55.8596 41.9245 54.2914 42.8496C52.732 43.7747 50.9172 44.2372 48.8468 44.2372C46.4328 44.2372 44.543 43.6205 43.1774 42.3871C41.8119 41.1625 41.1423 39.5017 41.1687 37.4049H43.64ZM67.1567 41.4224C68.0465 41.4224 68.7778 41.3299 69.3504 41.1448C70.3724 40.8012 71.2094 40.1405 71.8613 39.1626C72.3811 38.3785 72.7556 37.3741 72.9846 36.1495C73.1168 35.4183 73.1828 34.7399 73.1828 34.1143C73.1828 31.7092 72.7027 29.8414 71.7424 28.5111C70.7909 27.1808 69.2535 26.5156 67.1303 26.5156H62.4653V41.4224H67.1567ZM59.8223 24.2558H67.6853C70.3548 24.2558 72.4252 25.2029 73.8965 27.0971C75.2092 28.8062 75.8655 30.9956 75.8655 33.665C75.8655 35.7266 75.4779 37.5899 74.7026 39.2551C73.337 42.1977 70.9891 43.6689 67.6589 43.6689H59.8223V24.2558Z" fill="white"/>
</svg>
