<svg width="65" height="65" viewBox="0 0 65 65" fill="none" xmlns="http://www.w3.org/2000/svg">
<path d="M59.3095 45.8303H5.39169C4.6767 45.8303 3.99099 46.1143 3.48541 46.6199C2.97983 47.1255 2.6958 47.8112 2.6958 48.5262C2.6958 49.2412 2.97983 49.9269 3.48541 50.4325C3.99099 50.9381 4.6767 51.2221 5.39169 51.2221H59.3095C60.0245 51.2221 60.7102 50.9381 61.2158 50.4325C61.7214 49.9269 62.0054 49.2412 62.0054 48.5262C62.0054 47.8112 61.7214 47.1255 61.2158 46.6199C60.7102 46.1143 60.0245 45.8303 59.3095 45.8303ZM59.3095 56.6139H5.39169C4.6767 56.6139 3.99099 56.8979 3.48541 57.4035C2.97983 57.9091 2.6958 58.5948 2.6958 59.3098C2.6958 60.0248 2.97983 60.7105 3.48541 61.2161C3.99099 61.7216 4.6767 62.0057 5.39169 62.0057H59.3095C60.0245 62.0057 60.7102 61.7216 61.2158 61.2161C61.7214 60.7105 62.0054 60.0248 62.0054 59.3098C62.0054 58.5948 61.7214 57.9091 61.2158 57.4035C60.7102 56.8979 60.0245 56.6139 59.3095 56.6139ZM16.1753 18.8714C15.6421 18.8714 15.1208 19.0295 14.6775 19.3257C14.2342 19.622 13.8886 20.043 13.6846 20.5356C13.4805 21.0282 13.4271 21.5703 13.5312 22.0932C13.6352 22.6162 13.892 23.0965 14.269 23.4736C14.646 23.8506 15.1264 24.1074 15.6493 24.2114C16.1723 24.3154 16.7143 24.262 17.2069 24.058C17.6995 23.8539 18.1206 23.5084 18.4168 23.0651C18.713 22.6217 18.8712 22.1005 18.8712 21.5673C18.8712 20.8523 18.5871 20.1666 18.0815 19.661C17.576 19.1554 16.8903 18.8714 16.1753 18.8714ZM53.9178 2.69604H10.7835C8.63849 2.69604 6.58136 3.54814 5.06463 5.06487C3.54789 6.5816 2.6958 8.63874 2.6958 10.7837V32.3509C2.6958 34.4958 3.54789 36.553 5.06463 38.0697C6.58136 39.5864 8.63849 40.4385 10.7835 40.4385H53.9178C56.0627 40.4385 58.1199 39.5864 59.6366 38.0697C61.1533 36.553 62.0054 34.4958 62.0054 32.3509V10.7837C62.0054 8.63874 61.1533 6.5816 59.6366 5.06487C58.1199 3.54814 56.0627 2.69604 53.9178 2.69604ZM56.6136 32.3509C56.6136 33.0659 56.3296 33.7516 55.824 34.2571C55.3185 34.7627 54.6328 35.0468 53.9178 35.0468H10.7835C10.0685 35.0468 9.38277 34.7627 8.87719 34.2571C8.37162 33.7516 8.08759 33.0659 8.08759 32.3509V10.7837C8.08759 10.0687 8.37162 9.38302 8.87719 8.87744C9.38277 8.37186 10.0685 8.08783 10.7835 8.08783H53.9178C54.6328 8.08783 55.3185 8.37186 55.824 8.87744C56.3296 9.38302 56.6136 10.0687 56.6136 10.7837V32.3509ZM32.3506 13.4796C30.751 13.4796 29.1874 13.9539 27.8573 14.8426C26.5273 15.7313 25.4907 16.9944 24.8786 18.4723C24.2664 19.9501 24.1063 21.5763 24.4183 23.1451C24.7304 24.714 25.5007 26.1551 26.6318 27.2861C27.7628 28.4172 29.2039 29.1875 30.7728 29.4996C32.3416 29.8116 33.9678 29.6515 35.4456 29.0393C36.9235 28.4272 38.1866 27.3906 39.0753 26.0606C39.964 24.7306 40.4383 23.1669 40.4383 21.5673C40.4383 19.4223 39.5862 17.3652 38.0695 15.8484C36.5527 14.3317 34.4956 13.4796 32.3506 13.4796ZM32.3506 24.2632C31.8174 24.2632 31.2962 24.1051 30.8529 23.8088C30.4095 23.5126 30.064 23.0916 29.8599 22.599C29.6559 22.1064 29.6025 21.5643 29.7065 21.0413C29.8105 20.5184 30.0673 20.038 30.4443 19.661C30.8214 19.284 31.3017 19.0272 31.8247 18.9232C32.3476 18.8192 32.8897 18.8726 33.3823 19.0766C33.8749 19.2807 34.2959 19.6262 34.5922 20.0695C34.8884 20.5129 35.0465 21.0341 35.0465 21.5673C35.0465 22.2823 34.7625 22.968 34.2569 23.4736C33.7513 23.9792 33.0656 24.2632 32.3506 24.2632ZM48.526 18.8714C47.9928 18.8714 47.4715 19.0295 47.0282 19.3257C46.5849 19.622 46.2393 20.043 46.0353 20.5356C45.8312 21.0282 45.7779 21.5703 45.8819 22.0932C45.9859 22.6162 46.2427 23.0965 46.6197 23.4736C46.9967 23.8506 47.4771 24.1074 48 24.2114C48.523 24.3154 49.065 24.262 49.5576 24.058C50.0503 23.8539 50.4713 23.5084 50.7675 23.0651C51.0638 22.6217 51.2219 22.1005 51.2219 21.5673C51.2219 20.8523 50.9378 20.1666 50.4323 19.661C49.9267 19.1554 49.241 18.8714 48.526 18.8714Z" fill="black"/>
</svg>
