<svg width="24" height="25" viewBox="0 0 24 25" fill="none" xmlns="http://www.w3.org/2000/svg">
<path d="M4.11902 3.37061H7.61902C7.80275 3.37062 7.93038 3.42533 8.03503 3.52393C8.12854 3.61202 8.20705 3.72646 8.2655 3.87744L8.31726 4.04053L8.9823 7.0542C9.01497 7.28599 9.00744 7.47099 8.97253 7.61768C8.94139 7.74864 8.8796 7.85691 8.78015 7.95166L8.77332 7.95752L6.25574 10.4409L5.97644 10.7163L6.17664 11.0522C6.60337 11.7694 7.05685 12.4419 7.53699 13.0679C8.01981 13.6974 8.55599 14.2955 9.14441 14.8628C9.75779 15.496 10.399 16.0712 11.0682 16.5864C11.7434 17.1062 12.4488 17.5612 13.1844 17.9507L13.5155 18.1255L13.7762 17.8579L16.1815 15.3901L16.1913 15.3794C16.3309 15.228 16.4775 15.1369 16.6337 15.0903C16.7647 15.0515 16.8944 15.0379 17.0253 15.0474L17.1571 15.0649L19.9774 15.689C20.1431 15.7351 20.2749 15.8065 20.3817 15.9009L20.4813 16.0034C20.5981 16.1445 20.6552 16.3023 20.6552 16.4966V19.9067C20.6552 20.1437 20.581 20.3153 20.4374 20.4575C20.2909 20.6025 20.1181 20.6753 19.8866 20.6753C18.0114 20.6752 16.0911 20.225 14.1219 19.3101C12.1538 18.3957 10.3229 17.095 8.62976 15.4019C7.0427 13.8148 5.79967 12.1057 4.89539 10.2749L4.71863 9.90674C3.80159 7.93526 3.35046 6.01596 3.35046 4.14502C3.35048 3.96716 3.39174 3.82469 3.47351 3.70361L3.56921 3.58936C3.71327 3.44451 3.88502 3.37061 4.11902 3.37061ZM4.06628 4.60107C4.09721 5.31405 4.20923 6.06238 4.39929 6.84424C4.59086 7.63226 4.89058 8.50206 5.2948 9.45068L5.58386 10.1294L6.1073 9.60889L8.12683 7.60107L8.32019 7.40869L8.26257 7.14209L7.69421 4.4751L7.60925 4.07959H4.04382L4.06628 4.60107ZM19.9462 16.4028L19.5477 16.3208L17.0624 15.8062L16.7909 15.7505L16.5985 15.9507L14.6356 18.0083L14.1542 18.5122L14.787 18.8071C15.4818 19.1304 16.2353 19.3923 17.0448 19.5952C17.8555 19.7983 18.6477 19.9203 19.4208 19.9595L19.9462 19.9858V16.4028Z" fill="black" stroke="black"/>
</svg>
