<svg width="24" height="25" viewBox="0 0 24 25" fill="none" xmlns="http://www.w3.org/2000/svg">
<path d="M3.05359 5.76807V18.9722H20.9462V6.16455L20.1708 6.67432L12.2147 11.9126C12.1544 11.9442 12.102 11.9699 12.0565 11.9878C12.0534 11.9888 12.0366 11.9937 11.9999 11.9937C11.9626 11.9936 11.946 11.9887 11.9432 11.9878C11.8975 11.9698 11.8448 11.9445 11.7841 11.9126L4.05359 6.82178V6.42236L11.7264 11.4478L11.9999 11.6274L12.2733 11.4487L20.62 5.99854L21.6307 5.3374C21.6464 5.41521 21.6551 5.4956 21.6552 5.57959V18.4722C21.6552 18.7934 21.5429 19.0669 21.2938 19.3149C21.0449 19.563 20.7701 19.6753 20.4462 19.6753H3.55359C3.23187 19.6753 2.95869 19.5629 2.71082 19.3149L2.6239 19.2212C2.43623 18.9984 2.35046 18.7537 2.35046 18.4722V5.57959C2.35048 5.49107 2.35953 5.40635 2.37683 5.32471L3.05359 5.76807ZM3.55359 4.37061H20.4462C20.7696 4.37061 21.0438 4.48378 21.2928 4.73291H21.2938C21.4035 4.84257 21.485 4.95804 21.5438 5.07959H2.46082C2.5195 4.9576 2.60127 4.84183 2.71082 4.73193H2.71179C2.95976 4.48306 3.23251 4.37063 3.55359 4.37061Z" fill="black" stroke="black"/>
</svg>
