<svg width="18" height="21" viewBox="0 0 18 21" fill="none" xmlns="http://www.w3.org/2000/svg">
<path d="M8.99988 1.37061C11.0242 1.37061 12.8029 2.07521 14.3553 3.50342C15.8789 4.90501 16.6552 6.78848 16.6552 9.2085C16.6551 10.1937 16.4382 11.1785 15.996 12.1665C15.5425 13.1799 14.9734 14.1505 14.288 15.0786C13.5966 16.0148 12.8458 16.8886 12.035 17.6997C11.212 18.5232 10.4447 19.2517 9.73328 19.8853L9.72742 19.8901L9.72253 19.895C9.63196 19.9807 9.52743 20.0429 9.40515 20.0825C9.25868 20.13 9.1215 20.1519 8.99207 20.1519C8.86276 20.1518 8.72919 20.1299 8.58972 20.0835C8.47401 20.045 8.3759 19.9849 8.28992 19.9009L8.28113 19.8921L8.27136 19.8843C7.5564 19.2511 6.78741 18.5229 5.96472 17.6997C5.15398 16.8886 4.40315 16.0148 3.71179 15.0786C3.02653 14.1507 2.45811 13.1805 2.00671 12.1675C1.56634 11.1793 1.35052 10.1941 1.35046 9.2085C1.35046 6.78819 2.12659 4.90498 3.64832 3.50342C5.19864 2.07541 6.9756 1.37063 8.99988 1.37061ZM8.99988 2.07959C7.06463 2.07959 5.40981 2.74849 4.06824 4.08252C2.71865 5.42475 2.05359 7.14821 2.05359 9.2085C2.0537 10.628 2.6475 12.1671 3.75183 13.812C4.85668 15.4576 6.49736 17.2865 8.65906 19.2974L8.99597 19.6108L9.33582 19.3022C11.5486 17.2948 13.2062 15.464 14.2889 13.811C15.3677 12.1639 15.9461 10.6248 15.9462 9.2085C15.9462 7.14816 15.2812 5.42476 13.9315 4.08252V4.08154C12.5897 2.74765 10.935 2.07963 8.99988 2.07959ZM8.99792 7.72803C9.3641 7.72807 9.66189 7.8511 9.91882 8.10693C10.175 8.36205 10.2977 8.65836 10.2977 9.02393C10.2977 9.39011 10.1747 9.68634 9.9198 9.94092C9.66494 10.1953 9.36825 10.3179 9.00183 10.3179C8.63482 10.3178 8.3391 10.1949 8.08484 9.94189C7.83132 9.68929 7.70799 9.39502 7.70789 9.02881C7.70789 8.70734 7.80216 8.43867 7.99597 8.20459L8.08484 8.10693C8.33779 7.85155 8.63237 7.72803 8.99792 7.72803Z" fill="black" stroke="black"/>
</svg>
