<svg width="24" height="25" viewBox="0 0 24 25" fill="none" xmlns="http://www.w3.org/2000/svg">
<path fill-rule="evenodd" clip-rule="evenodd" d="M5.78754 14.0455C5.83131 14.0602 5.87549 14.0707 5.91963 14.0771C5.96777 14.1902 6.02996 14.3366 6.10252 14.5077C6.27959 14.9253 6.51819 15.4901 6.76446 16.0794C7.2667 17.2811 7.77332 18.5198 7.88521 18.8744C8.02372 19.3127 8.17013 19.6107 8.32996 19.8142C8.41261 19.9193 8.50819 20.0112 8.62003 20.0808C8.67633 20.1158 8.73581 20.1445 8.79789 20.1659C8.80062 20.1669 8.80335 20.1678 8.80608 20.1687C9.1261 20.2895 9.41786 20.2392 9.60053 20.1776C9.69827 20.1447 9.77735 20.1049 9.8334 20.0727C9.86198 20.0563 9.88612 20.041 9.90538 20.028L9.90992 20.0249L12.7361 18.2625L16.0007 20.7653C16.0489 20.8022 16.1014 20.8332 16.157 20.8575C16.5492 21.0286 16.929 21.0883 17.2862 21.0395C17.6429 20.9908 17.926 20.841 18.1368 20.6723C18.3432 20.5072 18.4832 20.3222 18.5703 20.1848C18.6148 20.1146 18.6482 20.0525 18.6718 20.005C18.6836 19.9811 18.6931 19.9605 18.7005 19.944L18.7099 19.9221L18.7135 19.9136L18.715 19.9099L18.7156 19.9083L18.7163 19.9067C18.7334 19.8638 18.7466 19.8194 18.7556 19.7741L21.7358 4.74862C21.7453 4.70056 21.7501 4.65169 21.7501 4.6027C21.7501 4.16269 21.5843 3.74429 21.1945 3.49039C20.8613 3.2734 20.4901 3.26406 20.2556 3.28186C20.0025 3.30107 19.7688 3.36354 19.612 3.41345C19.5304 3.43943 19.4619 3.46449 19.4126 3.48361C19.3878 3.49322 19.3675 3.50147 19.3523 3.50776L19.341 3.51254L2.62725 10.0691L2.62509 10.0699C2.61444 10.0737 2.60076 10.0788 2.58451 10.0852C2.55215 10.0978 2.50878 10.1155 2.45813 10.1385C2.35935 10.1833 2.22077 10.2532 2.07856 10.3506C1.85137 10.5062 1.32888 10.9323 1.41686 11.6356C1.48705 12.1967 1.87143 12.5412 2.10562 12.707C2.23421 12.7979 2.35638 12.863 2.44535 12.9054C2.48662 12.925 2.57232 12.9598 2.6095 12.9749L2.61889 12.9787L5.78754 14.0455ZM19.9259 4.89374L19.9236 4.89476C19.9153 4.89837 19.9069 4.90184 19.8984 4.90516L3.1644 11.4697C3.15566 11.4731 3.14686 11.4764 3.138 11.4795L3.12869 11.483C3.11798 11.4872 3.09996 11.4945 3.07734 11.5047C3.06451 11.5105 3.05112 11.5169 3.03747 11.5237C3.05622 11.5342 3.07417 11.5434 3.09012 11.551C3.10543 11.5583 3.11711 11.5633 3.1235 11.5659L6.26613 12.6239C6.32365 12.6433 6.37727 12.6689 6.42649 12.6998L16.8033 6.62536L16.813 6.61961C16.8206 6.61515 16.8305 6.60941 16.8424 6.60268C16.866 6.58933 16.8984 6.57156 16.937 6.55191C17.009 6.51526 17.1243 6.46085 17.2541 6.42073C17.3444 6.3928 17.6109 6.31411 17.899 6.40652C18.0768 6.46355 18.2609 6.58616 18.3807 6.79386C18.4401 6.89705 18.4718 7.00071 18.4872 7.0956C18.528 7.24508 18.5215 7.39269 18.4896 7.52012C18.4208 7.79463 18.228 8.00875 18.0525 8.17253C17.9022 8.31294 15.9567 10.1888 14.0376 12.0406C13.0806 12.964 12.1333 13.8783 11.4252 14.5618L10.9602 15.0108L16.8321 19.5126C16.9668 19.5608 17.0464 19.5583 17.0832 19.5533C17.1271 19.5473 17.163 19.5304 17.1997 19.5011C17.2407 19.4682 17.2766 19.4239 17.3034 19.3816L17.3045 19.3799L20.195 4.8069C20.1521 4.81721 20.1087 4.82948 20.0669 4.84279C20.0196 4.85786 19.9805 4.87222 19.9547 4.88225C19.9418 4.88722 19.9326 4.89099 19.9276 4.89306L19.9259 4.89374ZM11.4646 17.2876L10.2931 16.3895L10.0093 18.1952L11.4646 17.2876ZM9.21846 14.6073L10.3834 13.4826C11.0915 12.7991 12.0389 11.8847 12.9961 10.9611L13.9686 10.0229L7.44853 13.8397L7.48351 13.9222C7.66121 14.3413 7.90087 14.9086 8.14845 15.501C8.33358 15.9439 8.52717 16.4103 8.7035 16.8421L8.98653 15.0417C9.01382 14.8681 9.09862 14.7179 9.21846 14.6073Z" fill="black" fill-opacity="0.9"/>
</svg>
