<svg width="24" height="25" viewBox="0 0 24 25" fill="none" xmlns="http://www.w3.org/2000/svg">
<path d="M18.7146 4.72748C16.854 2.80988 14.3765 1.75928 11.7398 1.75928C6.30728 1.75928 1.87965 6.29828 1.87965 11.8675C1.87965 13.6525 2.33734 15.3865 3.19301 16.9165L1.80005 22.1593L7.02367 20.7517C8.46638 21.5575 10.0882 21.9859 11.7398 21.9859C17.1724 21.9859 21.6 17.4469 21.6 11.8777C21.6 9.17468 20.5752 6.63488 18.7146 4.72748ZM11.7398 20.2723C10.2673 20.2723 8.82457 19.8643 7.56095 19.0993L7.26246 18.9157L4.15814 19.7521L4.98397 16.6513L4.78497 16.3351C3.96909 14.9989 3.5313 13.4485 3.5313 11.8675C3.5313 7.23668 7.21271 3.46268 11.7299 3.46268C13.9188 3.46268 15.9784 4.33988 17.5206 5.93108C19.0728 7.52228 19.9185 9.63368 19.9185 11.8777C19.9384 16.5085 16.257 20.2723 11.7398 20.2723ZM16.2371 13.9891C15.9884 13.8667 14.7745 13.2547 14.5556 13.1629C14.3268 13.0813 14.1676 13.0405 13.9984 13.2853C13.8293 13.5403 13.3617 14.1115 13.2224 14.2747C13.0831 14.4481 12.9338 14.4685 12.6851 14.3359C12.4363 14.2135 11.6403 13.9381 10.7051 13.0813C9.96879 12.4081 9.48125 11.5819 9.33201 11.3269C9.19271 11.0719 9.31211 10.9393 9.44145 10.8067C9.5509 10.6945 9.6902 10.5109 9.8096 10.3681C9.92899 10.2253 9.97874 10.1131 10.0583 9.94988C10.1379 9.77648 10.0981 9.63368 10.0384 9.51128C9.97874 9.38888 9.48125 8.14448 9.28226 7.63448C9.08326 7.14488 8.87432 7.20608 8.72507 7.19588C8.57583 7.19588 8.41663 7.19588 8.24748 7.19588C8.07834 7.19588 7.81965 7.25708 7.5908 7.51208C7.37191 7.76708 6.73512 8.37908 6.73512 9.62348C6.73512 10.8679 7.62065 12.0715 7.74005 12.2347C7.85945 12.4081 9.48125 14.9581 11.9488 16.0495C12.5358 16.3147 12.9935 16.4677 13.3517 16.5799C13.9387 16.7737 14.476 16.7431 14.9039 16.6819C15.3815 16.6105 16.3665 16.0699 16.5655 15.4783C16.7744 14.8867 16.7744 14.3869 16.7048 14.2747C16.6351 14.1625 16.4859 14.1115 16.2371 13.9891Z" fill="black" fill-opacity="0.9"/>
</svg>
