<svg width="25" height="24" viewBox="0 0 25 24" fill="none" xmlns="http://www.w3.org/2000/svg">
<path d="M22.0931 7.20301C21.9792 6.78041 21.7566 6.39501 21.4475 6.08518C21.1383 5.77534 20.7534 5.55187 20.3311 5.43701C18.7651 5.00701 12.5001 5.00001 12.5001 5.00001C12.5001 5.00001 6.23609 4.99301 4.66909 5.40401C4.24701 5.52415 3.86291 5.75078 3.55365 6.06214C3.2444 6.3735 3.02037 6.75913 2.90309 7.18201C2.49009 8.74801 2.48609 11.996 2.48609 11.996C2.48609 11.996 2.48209 15.26 2.89209 16.81C3.12209 17.667 3.79709 18.344 4.65509 18.575C6.23709 19.005 12.4851 19.012 12.4851 19.012C12.4851 19.012 18.7501 19.019 20.3161 18.609C20.7386 18.4943 21.1238 18.2714 21.4337 17.9622C21.7436 17.653 21.9675 17.2682 22.0831 16.846C22.4971 15.281 22.5001 12.034 22.5001 12.034C22.5001 12.034 22.5201 8.76901 22.0931 7.20301ZM10.4961 15.005L10.5011 9.00501L15.7081 12.01L10.4961 15.005Z" fill="black"/>
</svg>
